<svg width="32" height="32" viewBox="0 0 32 32" fill="none" xmlns="http://www.w3.org/2000/svg">
<g clip-path="url(#clip0_18262_42825)">
<path d="M9.1662 1.27597C7.25413 1.55224 5.67649 2.08297 4.35331 2.8827C2.17224 4.20588 0.543708 6.67776 0.114764 9.30958C-0.117883 10.7636 0.012981 12.8284 0.405574 14.0134C0.732734 14.9731 1.02354 15.4602 2.25948 17.0451C2.87745 17.8448 3.20461 18.4555 3.47361 19.3061L3.66991 19.9605L3.71353 23.014L3.74988 26.0675L4.28061 26.0893L4.80406 26.1111V23.3629C4.80406 20.3749 4.7459 19.6769 4.41147 18.7027C4.0625 17.6922 3.74988 17.1542 2.73205 15.8528C1.44522 14.2097 1.08171 13.1483 1.07443 11.0544C1.07443 9.84758 1.16895 9.23688 1.50338 8.21905C2.34673 5.689 4.41147 3.62426 6.95605 2.77364C7.5304 2.57735 8.80269 2.30835 8.86085 2.35924C8.86812 2.37378 8.65001 2.51918 8.36648 2.6864C6.19995 3.97323 4.63685 6.28516 4.18609 8.85155C4.04796 9.65128 4.04796 11.3307 4.18609 12.1813C4.39693 13.4827 4.75317 14.217 5.8946 15.671C6.83973 16.8852 7.39954 17.9248 7.69034 19.0153C7.88664 19.7424 7.88664 19.7569 7.91572 22.9267L7.93753 26.1111L8.78815 26.0893L9.63877 26.0675L9.65331 25.5949C9.7042 24.2644 10.4894 23.1739 11.7835 22.6505C12.0234 22.5559 12.3942 22.505 13.1648 22.476L14.2263 22.4323L15.6222 21.6326C16.3928 21.1891 17.1489 20.7311 17.3016 20.6002C17.447 20.4767 17.6796 20.164 17.8178 19.9096C17.9486 19.6551 18.1377 19.3425 18.2395 19.2044C18.3412 19.0735 18.5084 18.71 18.6175 18.3974C18.9883 17.3723 19.2936 16.8488 20.1806 15.7437C21.6419 13.9189 22.0418 12.7993 22.0491 10.4728C22.0491 9.12782 21.8891 8.21177 21.4456 7.09216C20.2242 3.97323 17.6796 2.06843 13.8191 1.37049C12.7359 1.17419 10.1986 1.1233 9.1662 1.27597Z" fill="white"/>
<path d="M22.1797 6.39419C22.1797 6.43054 22.3178 6.86675 22.4778 7.35386C22.7031 8.02272 22.7831 8.36442 22.7831 8.69158C22.7758 8.9315 22.8267 9.29501 22.8849 9.50585L22.9867 9.8839L25.4004 9.90571C27.5306 9.92752 27.8505 9.94206 28.1049 10.0584C28.5266 10.2474 28.7738 10.5164 28.9555 10.9744C29.1082 11.367 29.1155 11.4979 29.1446 14.137L29.1736 16.8924L28.9628 16.8415C28.6865 16.7688 28.2867 16.5289 27.6323 16.0418C26.978 15.5547 26.4982 15.3802 26.0911 15.4965C25.9384 15.5329 25.5312 15.7801 25.1823 16.0491C24.4334 16.6161 24.0699 16.7906 23.6264 16.7979C23.1393 16.7979 22.6813 16.6161 22.0633 16.1726C21.7653 15.9545 21.4745 15.7801 21.4308 15.7801C21.2418 15.7801 19.8023 17.7503 19.8895 17.8884C19.9114 17.9175 20.224 17.9248 20.5948 17.903C21.1836 17.8739 21.3363 17.8957 21.7943 18.0556C22.7177 18.3755 23.2847 18.899 23.721 19.8223C23.91 20.2294 23.9609 20.433 23.9827 20.9419C24.0118 21.5526 23.9391 21.8943 23.5974 22.7159C23.5392 22.8394 23.561 22.8467 23.8227 22.8031C23.9754 22.774 24.4989 22.6286 24.9787 22.4905C26.5564 22.0252 27.2252 21.8798 27.9595 21.8362C28.8465 21.7853 29.3336 21.9016 29.8352 22.2869C30.017 22.425 30.1915 22.5414 30.2133 22.5414C30.2351 22.5414 30.2496 19.9822 30.2351 16.8488C30.2133 11.1635 30.2133 11.1635 30.0461 10.6764C29.7698 9.86209 29.2027 9.25866 28.4902 9.01147L28.1049 8.88061L28.0686 7.98637C28.0249 6.98308 27.9304 6.71408 27.5378 6.47416C27.3197 6.33603 27.1525 6.32876 24.7461 6.32876C23.2775 6.32876 22.1797 6.35784 22.1797 6.39419Z" fill="white"/>
<path d="M20.2531 18.899C19.5697 19.0808 19.1044 19.4806 18.7119 20.2367C18.2829 21.0655 17.8394 21.4436 16.1964 22.3887C15.4112 22.8395 14.6042 23.2611 14.4151 23.3193C14.2043 23.392 13.739 23.4356 13.1647 23.4429C12.3722 23.4574 12.2123 23.4792 11.8924 23.6319C10.7655 24.1772 10.2857 25.5585 10.8382 26.6709C11.2599 27.507 11.8924 27.885 12.8739 27.885C13.4046 27.885 13.5427 27.8559 13.8553 27.6887C14.3424 27.4343 14.6914 27.0489 15.0186 26.4092C15.1931 26.0747 15.433 25.7548 15.6729 25.5367C16.1091 25.1369 18.7409 23.5956 19.2498 23.4356C19.468 23.3702 19.9478 23.3266 20.5076 23.312C21.2782 23.3048 21.4673 23.2757 21.7435 23.1375C22.1798 22.9267 22.5796 22.5268 22.8195 22.0761C22.9867 21.7562 23.0158 21.6108 23.0158 21.0873C23.0158 20.5784 22.9867 20.4039 22.8413 20.1131C22.6087 19.6478 22.187 19.2262 21.7581 19.0444C21.3873 18.8845 20.5948 18.8045 20.2531 18.899Z" fill="white"/>
<path d="M27.7055 22.8032C27.6037 22.8178 27.3275 22.8686 27.0875 22.9123C26.8476 22.9486 26.2297 23.1158 25.7062 23.2685C24.4121 23.6611 23.6487 23.8356 22.8126 23.9228C22.4273 23.9665 21.9838 24.0537 21.8312 24.1191C21.6494 24.1991 21.2277 24.25 20.5007 24.2791L19.4465 24.3227L18.0361 25.1224C16.7056 25.8785 15.9277 26.4601 15.9277 26.6928C15.9277 26.8527 16.284 27.2453 16.6329 27.4707C17.2291 27.856 18.0506 28.0087 18.6395 27.8415C18.9085 27.7688 18.9085 27.7688 18.9085 27.3689C18.9085 25.7549 21.1768 24.7444 22.9653 25.5586C23.5469 25.8276 23.8741 26.1184 24.1358 26.6128C24.3903 27.0854 24.5357 27.1581 24.6084 26.8527C24.6884 26.5619 25.0446 26.0821 25.3572 25.864C26.9494 24.7662 29.3122 25.2678 29.8648 26.8237C29.9375 27.0272 30.0247 27.1944 30.0683 27.1944C30.1847 27.1872 30.5845 26.6055 30.7299 26.2202C30.9117 25.7331 30.9117 24.9407 30.7299 24.4681C30.4682 23.7774 29.872 23.1667 29.225 22.9341C28.8978 22.8178 28.0399 22.7451 27.7055 22.8032Z" fill="white"/>
<path d="M20.682 26.4019C20.1877 26.5909 19.9187 26.8817 19.875 27.2816C19.8314 27.7178 20.0277 28.0013 20.5439 28.2485C21.38 28.6629 22.4778 28.5539 23.0521 28.0013C23.3066 27.7614 23.3429 27.6887 23.3429 27.3906C23.3429 26.9762 23.103 26.6636 22.5796 26.4237C22.0997 26.1983 21.2346 26.191 20.682 26.4019Z" fill="white"/>
<path d="M26.5422 26.3146C26.0187 26.4818 25.5825 26.8599 25.4953 27.2088C25.4299 27.5069 25.6189 27.8777 25.9533 28.1249C27.0002 28.8883 29.0141 28.3793 29.0141 27.3615C29.0141 27.0416 28.7378 26.6854 28.3234 26.4745C28.0326 26.3219 27.8508 26.2855 27.3419 26.271C27.0002 26.2637 26.644 26.2782 26.5422 26.3146Z" fill="white"/>
<path d="M0.674727 27.1362C0.551133 27.2598 0.551133 30.6187 0.674727 30.7423C0.798321 30.8659 31.784 30.8659 31.9076 30.7423C32.0312 30.6187 32.0312 27.2598 31.9076 27.1362C31.7622 26.9908 31.3551 27.0272 31.3042 27.1944C31.2024 27.507 30.3664 28.2486 29.7993 28.5248C29.4867 28.6775 29.1086 28.8811 28.9632 28.9829C28.4906 29.3028 27.7781 29.47 27.0657 29.4336C26.1932 29.3827 25.6843 29.1792 25.1536 28.6557C24.9282 28.4303 24.7319 28.2122 24.7174 28.1686C24.7028 28.125 24.5865 28.0596 24.4557 28.0377C24.2521 27.9868 24.2085 28.0087 24.114 28.1904C23.954 28.4958 23.496 28.9102 23.0816 29.1137C22.5581 29.3755 22.0274 29.47 21.3367 29.4264C20.7042 29.39 20.1299 29.1792 19.6573 28.8229L19.4101 28.6412L18.9085 28.7502C17.7525 29.012 16.7419 28.7793 15.8404 28.045C15.6078 27.856 15.4042 27.7033 15.3824 27.7033C15.3606 27.7033 15.2079 27.8414 15.0407 28.0087C14.8662 28.1686 14.4809 28.4231 14.1828 28.5685C13.6594 28.8229 13.6085 28.8302 12.8378 28.8302C12.089 28.8302 12.009 28.8157 11.551 28.5975C10.9912 28.3358 10.4023 27.8196 10.1333 27.3616L9.95154 27.049H5.35676C1.88159 27.049 0.740159 27.0708 0.674727 27.1362Z" fill="white"/>
</g>
<defs>
<clipPath id="clip0_18262_42825">
<rect width="32" height="32" fill="white"/>
</clipPath>
</defs>
</svg>
