<svg width="48" height="48" viewBox="0 0 48 48" fill="none" xmlns="http://www.w3.org/2000/svg">
<g clip-path="url(#clip0_6087_40092)">
<path d="M30.9375 3.23437V6.46875L26.7656 9.25312L22.5938 12.0281V14.5969V17.1562H35.2969H48V14.5969V12.0375L43.7344 9.225L39.4688 6.42188V3.20625V0H35.2031H30.9375V3.23437Z" fill="#EB1400"/>
<path d="M0 28.3125V33.9375L9.91875 33.9187L19.8281 33.8906L19.8563 28.2844L19.875 22.6875H9.9375H0V28.3125ZM15.4688 27.1406V28.5H9.9375H4.40625V27.1406V25.7812H9.9375H15.4688V27.1406Z" fill="#EB1400"/>
<path d="M22.5938 35.3437V48H35.2969H48V35.3437V22.6875H35.2969H22.5938V35.3437ZM30.9375 27.1406V28.5H29.5781H28.2188V27.1406V25.7812H29.5781H30.9375V27.1406ZM36.5625 27.1406V28.5H35.2031H33.8438V27.1406V25.7812H35.2031H36.5625V27.1406ZM42.1875 27.1406V28.5H40.8281H39.4688V27.1406V25.7812H40.8281H42.1875V27.1406ZM42.1875 36.75V42.375H35.2031H28.2188V36.75V31.125H35.2031H42.1875V36.75Z" fill="#EB1400"/>
<path d="M0 42.3281V48H9.9375H19.875V42.3281V36.6562H9.9375H0V42.3281ZM15.4688 41.0156V42.375H9.9375H4.40625V41.0156V39.6562H9.9375H15.4688V41.0156Z" fill="#EB1400"/>
</g>
<defs>
<clipPath id="clip0_6087_40092">
<rect width="48" height="48" fill="white"/>
</clipPath>
</defs>
</svg>
