<svg width="32" height="32" viewBox="0 0 32 32" fill="none" xmlns="http://www.w3.org/2000/svg">
<path d="M15.0624 1.38125C14.4874 1.46875 13.5311 1.80625 12.9874 2.11875C11.8874 2.75 10.9374 3.825 10.4436 5C10.3624 5.1875 10.2874 5.35 10.2811 5.3625C10.2686 5.375 10.1249 5.3125 9.95614 5.23125C9.79364 5.14375 9.42489 5.00625 9.14989 4.91875C7.68114 4.45625 6.11864 4.56875 4.71864 5.24375C3.96864 5.60625 3.46239 5.975 2.89364 6.5875C2.11864 7.425 1.54364 8.60625 1.36864 9.75C1.26864 10.4062 1.32489 11.5312 1.49989 12.1875C1.99364 14.0938 3.42489 15.675 5.24989 16.3125C5.47489 16.3937 5.68114 16.4812 5.70614 16.5062C5.73739 16.5312 6.07489 18.2188 6.46239 20.2562L7.15614 23.9688L9.54989 23.9875L11.9374 24V23.8187C11.9374 23.7188 11.8124 22.2563 11.6561 20.5625C11.4999 18.8688 11.3749 17.4062 11.3749 17.3125C11.3749 17.0812 11.6374 16.7687 11.8749 16.7188C11.9811 16.6937 12.1249 16.7125 12.2249 16.7625C12.6124 16.95 12.5999 16.9 12.9061 20.3125C13.0561 22.05 13.1999 23.5875 13.2186 23.7375L13.2561 24H15.9999H18.7436L18.7811 23.7312C18.7999 23.5875 18.9436 22.05 19.0936 20.3125C19.3999 16.9062 19.3874 16.95 19.7749 16.7625C19.8749 16.7125 20.0186 16.6937 20.1249 16.7188C20.3624 16.7687 20.6249 17.0812 20.6249 17.3125C20.6249 17.4062 20.4999 18.8688 20.3436 20.5625C20.1874 22.2563 20.0624 23.7188 20.0624 23.8187V24L22.4499 23.9875L24.8436 23.9688L25.5374 20.2562C25.9249 18.2188 26.2624 16.5312 26.2936 16.5062C26.3186 16.4812 26.4999 16.4125 26.6874 16.3438C28.2436 15.8187 29.6999 14.4125 30.2749 12.875C30.5436 12.175 30.6311 11.7437 30.6686 10.9688C30.7124 10.0625 30.6311 9.5 30.3499 8.66875C29.9749 7.58125 29.2249 6.54375 28.2936 5.8375C27.4311 5.1875 26.1874 4.73125 25.0311 4.65C24.0749 4.58125 22.8561 4.81875 22.0311 5.23125C21.8374 5.33125 21.7124 5.3625 21.6999 5.31875C21.6874 5.28125 21.5561 5.00625 21.4124 4.70625C20.6124 3.075 19.2311 1.95625 17.4499 1.49375C16.8811 1.34375 15.6624 1.2875 15.0624 1.38125Z" fill="#EB1400"/>
<path d="M7.3125 27.7875V30.2625L7.525 30.475L7.7375 30.6875H16H24.2625L24.475 30.475L24.6875 30.2625V27.7875V25.3125H16H7.3125V27.7875Z" fill="#EB1400"/>
</svg>
